PathFileType	4	(X/Y/Z)	/Users/niels/Desktop/University/Third Semester/Perception and Action/Exam/Gymnastics Motion Tracking/Code for Gym Tracking/Analyzed Data/Webcam_Backflip/id4_4_pure_Sports2D/id4_4_pure_Sports2D_px_person00.trc
DataRate	CameraRate	NumFrames	NumMarkers	Units	OrigDataRate	OrigDataStartFrame	OrigNumFrames
29.8125	29.8125	7	22	m	29.8125	40	160
Frame#	Time	Hip			RHip			RKnee			RAnkle			RBigToe			RSmallToe			RHeel			LHip			LKnee			LAnkle			LBigToe			LSmallToe			LHeel			Neck			Head			Nose			RShoulder			RElbow			RWrist			LShoulder			LElbow			LWrist		
		X1	Y1	Z1	X2	Y2	Z2	X3	Y3	Z3	X4	Y4	Z4	X5	Y5	Z5	X6	Y6	Z6	X7	Y7	Z7	X8	Y8	Z8	X9	Y9	Z9	X10	Y10	Z10	X11	Y11	Z11	X12	Y12	Z12	X13	Y13	Z13	X14	Y14	Z14	X15	Y15	Z15	X16	Y16	Z16	X17	Y17	Z17	X18	Y18	Z18	X19	Y19	Z19	X20	Y20	Z20	X21	Y21	Z21	X22	Y22	Z22
40	1.341719077568134	0.9693994770621177	-0.3596376369027004	0.0	0.9728921931232699	-0.3578578695261933	0.0	0.9851285901119992	-0.26323916550125975	0.0	1.0485164171955557	-0.3096831893364675	0.0	1.0805388013509893	-0.2994662705556438	0.0	1.081471081971278	-0.30513411668894863	0.0	1.0549271501181752	-0.32323385065181026	0.0	0.9682819500767549	-0.35747520964429896	0.0	0.977214312208831	-0.2759089325394901	0.0	1.046094930836956	-0.30792622407116704	0.0	1.0494036541202807	-0.27273735396099263	0.0	1.0754674922023149	-0.30045404856688973	0.0	1.0567890557667359	-0.3230306838717557	0.0	0.835015247422395	-0.36247751916642784	0.0	0.7709105585467977	-0.36585643932067313	0.0	0.8019640754061601	-0.3432234997731494	0.0	0.8445364199910699	-0.35111460245046394	0.0	0.9056937082410588	-0.3112474962332425	0.0	0.9239308763948402	-0.24429526993984496	0.0	0.8476448828013958	-0.36189570264742316	0.0	0.9032617801433825	-0.3176249863964286	0.0	0.9311680011329406	-0.26102554266773986	0.0
41	1.3752620545073373	0.9753319693240198	-0.3389613263503627	0.0	0.978281908319144	-0.33652410987306675	0.0	0.9594327752194325	-0.24615471536465053	0.0	1.030685646973302	-0.26245271259639374	0.0	1.0565041296145987	-0.24606869284913174	0.0	1.0599967809586806	-0.24971107171702445	0.0	1.03933241513703	-0.2718520561843052	0.0	0.975379882796598	-0.3376168701780675	0.0	0.9498223988166947	-0.26186109607147356	0.0	1.0301282355647656	-0.26170678475224624	0.0	1.0317118849665667	-0.22056206357164002	0.0	1.0541848052713048	-0.2481683339861586	0.0	1.0440211241306743	-0.2710770988233138	0.0	0.8492188009197253	-0.377134583031312	0.0	0.7905793336644079	-0.39599717653062577	0.0	0.8143300392097574	-0.3689544070730661	0.0	0.8572641777843155	-0.35946997619399323	0.0	0.9125153529430571	-0.30820708087931314	0.0	0.9214163352270932	-0.2419268337929002	0.0	0.8625158554150648	-0.37342819086390416	0.0	0.9085338742826622	-0.31553900944526253	0.0	0.9236482429194576	-0.25430087665634293	0.0
42	1.4088050314465406	0.9786021794364649	-0.31784228297065126	0.0	0.9803609062451581	-0.31522647417728217	0.0	0.9354057962045464	-0.24227946545046353	0.0	1.002637710995766	-0.2274737321461944	0.0	1.017556417172893	-0.21126058718687765	0.0	1.0239978827980316	-0.21136445676919513	0.0	1.0116678591539725	-0.23142951662697703	0.0	0.9799828445239834	-0.31709768577700437	0.0	0.9236507965710742	-0.2598080723985628	0.0	1.0046113127963303	-0.22729822733251745	0.0	1.0046083712560914	-0.1901713584442669	0.0	1.0190420347270692	-0.21484682871188038	0.0	1.0191776014166576	-0.23002591688247978	0.0	0.8704324667160165	-0.3920092684078179	0.0	0.8208517110899822	-0.4256677082402939	0.0	0.8352773857144316	-0.39630812927321635	0.0	0.8753037603062985	-0.3693689725365934	0.0	0.917220088706739	-0.30785825406593037	0.0	0.9126394646413492	-0.2449295108066632	0.0	0.8837718905700143	-0.3850467740858362	0.0	0.9148506610743946	-0.3156540629751282	0.0	0.9144900239881375	-0.25402633623526466	0.0
43	1.442348008385744	0.9779954823932261	-0.29798953843214904	0.0	0.9781894622263902	-0.2958765314105152	0.0	0.913621439338679	-0.25037182588180007	0.0	0.9669457424285175	-0.207505599154592	0.0	0.9680723758852599	-0.19618312549040667	0.0	0.977318050385322	-0.1921257539509052	0.0	0.974850680419226	-0.20545918650098582	0.0	0.9803745073736718	-0.2973442352727461	0.0	0.9006926480887973	-0.26713319164122606	0.0	0.9713768670249046	-0.20710044741009706	0.0	0.9667790485269949	-0.17978432370129696	0.0	0.9736742455169621	-0.2013636393115962	0.0	0.9846205936110435	-0.20319081416472567	0.0	0.8974088775701522	-0.40419062757741975	0.0	0.8608647541172864	-0.4502720413717827	0.0	0.8648083935392917	-0.42093018254165726	0.0	0.8979249755425459	-0.37889450415511816	0.0	0.9201185627206602	-0.31051860379268903	0.0	0.9002017547080717	-0.25476582793958336	0.0	0.9098998585638945	-0.3942992634116887	0.0	0.9218202886851576	-0.3181976944922046	0.0	0.9054209717195595	-0.2617803892125966	0.0
44	1.4758909853249473	0.973139521179608	-0.2815723410534596	0.0	0.971734924913234	-0.28061553839793124	0.0	0.8940213693645982	-0.26858330103092176	0.0	0.9269220592005835	-0.20398543058089916	0.0	0.9141358035491857	-0.20000673142895076	0.0	0.9251759988496198	-0.19216622339867437	0.0	0.9327876589396379	-0.19610119099663678	0.0	0.975869859043066	-0.28064411154342345	0.0	0.8823860549345408	-0.28131310785938296	0.0	0.9330850790443422	-0.20262119816674862	0.0	0.9207550259290672	-0.18725918107762082	0.0	0.923291658642885	-0.20613040120133333	0.0	0.9438001647774042	-0.19276933882302688	0.0	0.927967426264003	-0.4111987079451391	0.0	0.9081731773513545	-0.46618426269149965	0.0	0.9015111575697252	-0.43892976504389264	0.0	0.9238137138855647	-0.38599574986641555	0.0	0.9221460593347222	-0.3162686096235483	0.0	0.8876783663815954	-0.2722586733262324	0.0	0.9383061093643986	-0.3989260972310922	0.0	0.9288514703477698	-0.32321665488026746	0.0	0.8980430317994091	-0.27784273269370585	0.0
45	1.5094339622641506	0.9644348277993359	-0.27077709924769683	0.0	0.9616894375044976	-0.2713136539885314	0.0	0.8777253199047483	-0.2942238469607161	0.0	0.886044714791245	-0.21717714619545136	0.0	0.8623758770652473	-0.2220183902684988	0.0	0.873295736457573	-0.21154783593737753	0.0	0.8892955171461336	-0.20440274588984414	0.0	0.9669912635003769	-0.2695279257022124	0.0	0.8697726448949391	-0.3007008201609197	0.0	0.8931195539608662	-0.2146659495097865	0.0	0.8725188039801118	-0.21197731207906487	0.0	0.8737727959280213	-0.2274361104775056	0.0	0.9006056426779313	-0.20010113536254584	0.0	0.9592752042938469	-0.41172710310518607	0.0	0.958701191617584	-0.47144859079322055	0.0	0.9423235715312135	-0.44792404100638383	0.0	0.9509645267445029	-0.3891037812100649	0.0	0.9246636926154028	-0.32526612287049317	0.0	0.8790089540203659	-0.2974995874099509	0.0	0.9660201955680452	-0.39777853969416443	0.0	0.9355737770200129	-0.330766028880945	0.0	0.8939678744279128	-0.3013728529378303	0.0
46	1.542976939203354	0.9528901307736647	-0.26743242114844884	0.0	0.949245929995111	-0.2692413527464699	0.0	0.8668937307726308	-0.3241071128349045	0.0	0.8479319966481502	-0.2464112880585098	0.0	0.8189083805834211	-0.26178019902461425	0.0	0.8275055004487082	-0.2501134938854468	0.0	0.8479268426345562	-0.23042726037455744	0.0	0.9550958986372072	-0.26608593415379606	0.0	0.8631701832293662	-0.324416506544927	0.0	0.8554700284643232	-0.24340303819726417	0.0	0.8295168545235873	-0.25385981587922324	0.0	0.8310807211626078	-0.2645112454738506	0.0	0.859229052321839	-0.22588608644757852	0.0	0.9883645999536843	-0.4060251643591503	0.0	1.0074019957199514	-0.4660539688514537	0.0	0.9830440988928678	-0.4475016864264079	0.0	0.9769758559623299	-0.38763927801747444	0.0	0.9291684546669481	-0.33765085566455755	0.0	0.877859136839956	-0.32962373358950775	0.0	0.9905375622382298	-0.3913708040366557	0.0	0.9421664181802791	-0.3411229178981418	0.0	0.8950763990690009	-0.33081718964614176	0.0
